<svg width="150" height="30" viewBox="0 0 150 30" fill="none" xmlns="http://www.w3.org/2000/svg">
<g clip-path="url(#clip0_2901_1017)">
<path d="M-0.722656 29.0054V5.66214H3.95843V25.022H15.5413V28.9983H-0.722656V29.0054ZM18.8547 29.0054V5.46473H35.9576V9.44105H23.5358V14.6652H35.0905V18.6416H23.5358V25.022H36.4088V28.9983H18.8547V29.0054ZM40.4413 29.0054V5.46473H45.1224V15.892L54.548 5.46473H60.8223L52.1017 14.63L61.2735 28.9983H55.2389L48.8799 17.9436L45.1224 21.8776V28.9983H40.4413V29.0054ZM63.6775 29.0054V5.46473H73.5049C75.9724 5.46473 77.7701 5.67624 78.891 6.09925C80.0119 6.52226 80.9073 7.26958 81.577 8.34826C82.2467 9.434 82.5851 10.6678 82.5851 12.0567C82.5851 13.8263 82.0775 15.2857 81.0624 16.4348C80.0472 17.584 78.5315 18.3102 76.5082 18.6134C77.5163 19.2126 78.3411 19.8683 78.9968 20.5874C79.6524 21.3065 80.5336 22.5826 81.6404 24.4086L84.4604 28.9983H78.884L75.5353 23.8587C74.3368 22.0327 73.512 20.8835 73.0679 20.4041C72.6308 19.9317 72.1584 19.6074 71.6649 19.4312C71.1644 19.2549 70.3819 19.1703 69.3033 19.1703H68.3586V28.9983H63.6775V29.0054ZM68.3586 15.4267H71.813C74.0478 15.4267 75.4436 15.328 76.0006 15.1376C76.5575 14.9473 76.9946 14.6088 77.3048 14.1435C77.622 13.6712 77.7771 13.079 77.7771 12.3739C77.7771 11.5773 77.5656 10.9427 77.1568 10.4492C76.7408 9.96276 76.1557 9.65255 75.4013 9.52565C75.0207 9.46925 73.8856 9.44105 71.9963 9.44105H68.3586V15.4267ZM86.0113 17.3796C86.0113 14.9825 86.3638 12.9662 87.0688 11.3305C87.5905 10.132 88.3096 9.05328 89.219 8.09446C90.1284 7.14268 91.1225 6.43061 92.2011 5.9653C93.6392 5.34488 95.303 5.03467 97.1853 5.03467C100.597 5.03467 103.319 6.11335 105.363 8.27071C107.408 10.4281 108.43 13.4244 108.43 17.2668C108.43 21.0739 107.415 24.0561 105.384 26.2064C103.354 28.3567 100.64 29.4354 97.2488 29.4354C93.8155 29.4354 91.0731 28.3638 89.0498 26.2276C87.0265 24.0914 86.0043 21.1444 86.0043 17.3866L86.0113 17.3796ZM90.8193 17.2245C90.8193 19.8895 91.4256 21.9129 92.6382 23.2947C93.8507 24.6695 95.3876 25.3604 97.2488 25.3604C99.117 25.3604 100.64 24.6765 101.838 23.3088C103.03 21.9411 103.629 19.8894 103.629 17.154C103.629 14.4537 103.051 12.4374 101.88 11.1119C100.717 9.77945 99.1734 9.11674 97.2417 9.11674C95.3171 9.11674 93.7591 9.79356 92.5818 11.1331C91.4045 12.4797 90.8123 14.5101 90.8123 17.2174L90.8193 17.2245ZM112.082 29.0124V5.47178H116.608L126.118 21.2431V5.47178H130.439V29.0124H125.765L116.403 13.5372V29.0124H112.082Z" fill="white"/>
<path d="M143.482 0.571777C144.518 0.571777 145.512 0.832634 146.457 1.3614C147.409 1.89016 148.156 2.64454 148.699 3.62451C149.242 4.61154 149.517 5.64087 149.517 6.7125C149.517 7.78413 149.249 8.80641 148.72 9.77934C148.184 10.7452 147.444 11.5066 146.492 12.0495C145.54 12.5924 144.539 12.8603 143.489 12.8603C142.438 12.8603 141.437 12.5924 140.485 12.0495C139.534 11.5066 138.793 10.7452 138.258 9.77934C137.722 8.80641 137.461 7.78413 137.461 6.7125C137.461 5.63382 137.736 4.60449 138.279 3.62451C138.822 2.64454 139.569 1.88311 140.521 1.3614C141.473 0.832634 142.46 0.571777 143.496 0.571777H143.482ZM143.489 1.78441C142.657 1.78441 141.86 1.99592 141.099 2.41893C140.337 2.84194 139.738 3.44826 139.301 4.23788C138.864 5.02751 138.638 5.85943 138.638 6.71956C138.638 7.57968 138.857 8.40455 139.28 9.18008C139.71 9.96265 140.302 10.569 141.071 11.0061C141.839 11.4432 142.643 11.6617 143.482 11.6617C144.328 11.6617 145.132 11.4432 145.893 11.0061C146.661 10.569 147.254 9.96265 147.684 9.18008C148.114 8.40455 148.332 7.57968 148.332 6.71956C148.332 5.85943 148.114 5.02751 147.67 4.23788C147.233 3.44826 146.633 2.84194 145.872 2.41893C145.103 1.99592 144.307 1.78441 143.482 1.78441H143.489ZM140.76 10.0049V3.49761H142.058C143.27 3.49761 143.954 3.50466 144.102 3.51171C144.532 3.54696 144.864 3.63862 145.103 3.77257C145.343 3.90652 145.54 4.11803 145.703 4.40004C145.858 4.68205 145.942 4.99226 145.942 5.33066C145.942 5.80303 145.794 6.20489 145.491 6.53625C145.188 6.86761 144.765 7.07911 144.222 7.15666C144.419 7.23422 144.568 7.31177 144.673 7.40343C144.779 7.48803 144.927 7.65723 145.103 7.90399C145.153 7.96744 145.308 8.23535 145.576 8.70066L146.323 10.012H144.709L144.18 8.95447C143.82 8.2424 143.524 7.79823 143.291 7.61493C143.052 7.43162 142.756 7.33997 142.396 7.33997H142.058V10.0191H140.753L140.76 10.0049ZM142.065 6.28949H142.586C143.334 6.28949 143.799 6.26129 143.975 6.20489C144.159 6.14849 144.3 6.04979 144.405 5.90173C144.511 5.75368 144.56 5.59152 144.56 5.40822C144.56 5.23196 144.511 5.06981 144.405 4.9288C144.307 4.7878 144.159 4.6891 143.968 4.62564C143.778 4.56219 143.32 4.53399 142.579 4.53399H142.058V6.29654L142.065 6.28949Z" fill="white"/>
</g>
<defs>
<clipPath id="clip0_2901_1017">
<rect width="150" height="30" fill="white"/>
</clipPath>
</defs>
</svg>
